<svg width="322" height="68" viewBox="0 0 322 68" fill="none" xmlns="http://www.w3.org/2000/svg">
<path d="M17.1325 16.1612L16.2118 27.9605C15.894 27.8115 15.5761 27.7089 15.2582 27.6529C14.9403 27.5971 14.6224 27.569 14.3046 27.569C13.4934 27.569 12.7206 27.7555 11.9862 28.1284C11.2518 28.4825 10.5996 29.0324 10.0296 29.7779C9.4706 30.5236 9.02118 31.4555 8.68138 32.574C8.35254 33.6924 8.18812 35.0066 8.18812 36.5164C8.18812 37.4857 8.27581 38.3246 8.45119 39.0329C8.63753 39.7412 8.89512 40.3285 9.22396 40.7945C9.5528 41.2604 9.94194 41.6053 10.3913 41.8289C10.8408 42.0526 11.334 42.1645 11.8711 42.1645C12.2767 42.1645 12.6987 42.0899 13.1372 41.9408C13.5756 41.7917 14.0086 41.596 14.4361 41.3537C14.8636 41.1114 15.2801 40.8317 15.6856 40.5148C16.0913 40.1978 16.4639 39.8716 16.8038 39.5363L16.1461 52.6776C15.7186 53.0504 15.2527 53.3859 14.7485 53.6842C14.2552 53.9637 13.7455 54.2155 13.2194 54.4392C12.6932 54.6443 12.1671 54.8026 11.6409 54.9145C11.1148 55.0263 10.6105 55.0821 10.1283 55.0821C8.73618 55.0821 7.43727 54.6443 6.23153 53.7681C5.02577 52.892 3.97897 51.6897 3.0911 50.1611C2.20323 48.6327 1.5017 46.8339 0.986526 44.7648C0.482304 42.6772 0.230194 40.431 0.230194 38.0263C0.230194 34.8389 0.498746 31.8378 1.03585 29.0231C1.57296 26.1897 2.36217 23.7105 3.4035 21.5855C4.44483 19.4605 5.73279 17.7829 7.26737 16.5526C8.81292 15.3224 10.5887 14.7072 12.5946 14.7072C13.3509 14.7072 14.1237 14.8098 14.9129 15.0148C15.7131 15.2199 16.4529 15.602 17.1325 16.1612ZM38.9018 53.069L30.7466 54.8585L29.76 48.5395H26.0113L25.1891 54.8585L16.8038 53.4605L23.3476 16.2171L32.4894 15.4342L38.9018 53.069ZM29.1682 39.9836L27.9185 30.2532L26.7018 39.9836H29.1682ZM58.5171 28.5197C58.5171 29.9737 58.4404 31.2972 58.2868 32.49C58.1444 33.6645 57.9142 34.7457 57.5963 35.7336C57.2784 36.7214 56.8674 37.6348 56.3632 38.4737C55.8589 39.3126 55.2506 40.1141 54.5381 40.8784L58.4513 52.7336L51.0524 55.1942L48.5204 43.2829L46.4816 43.3947L46.1855 55.0263H39.1155C39.1704 50.7763 39.2196 46.5449 39.2635 42.3321C39.3183 38.1195 39.3786 33.8882 39.4444 29.6382C39.4663 27.4946 39.4882 25.3696 39.5101 23.2632C39.532 21.1568 39.5759 19.0318 39.6417 16.8882C40.4089 16.4035 41.1653 16.0027 41.9106 15.6859C42.6561 15.369 43.4014 15.1266 44.1467 14.9589C44.9031 14.7725 45.6649 14.6513 46.4322 14.5954C47.2105 14.5208 48.0052 14.4836 48.8163 14.4836C50.0659 14.4836 51.2717 14.7818 52.4335 15.3783C53.6064 15.9562 54.6423 16.8322 55.541 18.0066C56.4399 19.181 57.1579 20.6443 57.6949 22.3963C58.2431 24.1486 58.5171 26.1897 58.5171 28.5197ZM51.1511 29.4145C51.1511 28.6316 51.0853 27.914 50.9538 27.2616C50.8332 26.6091 50.6468 26.0499 50.3947 25.5839C50.1536 25.0992 49.8467 24.7264 49.4739 24.4655C49.1123 24.1858 48.6847 24.0461 48.1915 24.0461C47.9722 24.0461 47.7585 24.074 47.5503 24.13C47.342 24.1672 47.1392 24.2325 46.9419 24.3258L46.6789 34.7269H47.0735C47.5448 34.7269 48.0216 34.6245 48.5039 34.4195C48.9972 34.2144 49.4356 33.8975 49.8193 33.4687C50.2139 33.04 50.5317 32.49 50.7729 31.819C51.025 31.1479 51.1511 30.3464 51.1511 29.4145ZM78.2967 33.2731C78.2967 35.8827 78.0995 38.2221 77.7049 40.2911C77.3103 42.3602 76.7567 44.1962 76.0442 45.7994C75.3428 47.3838 74.5042 48.7352 73.5286 49.8537C72.553 50.9721 71.4843 51.8947 70.3224 52.6216C69.1606 53.3301 67.9219 53.8521 66.6066 54.1874C65.3021 54.5231 63.9593 54.6908 62.5783 54.6908C62.0631 54.6908 61.5588 54.6722 61.0655 54.6348C60.5723 54.5789 60.0681 54.5043 59.553 54.4111L60.0132 18.0066C61.2191 17.3542 62.4577 16.8975 63.7292 16.6365C65.0116 16.3569 66.2832 16.2171 67.5437 16.2171C69.1112 16.2171 70.5526 16.5899 71.868 17.3355C73.1833 18.0812 74.3178 19.181 75.2714 20.6348C76.2251 22.0701 76.965 23.8503 77.4911 25.9753C78.0282 28.0817 78.2967 30.5143 78.2967 33.2731ZM67.1162 44.01C67.7739 43.8421 68.3713 43.5066 68.9084 43.0032C69.4565 42.4814 69.9278 41.8476 70.3224 41.1021C70.717 40.3378 71.0185 39.4803 71.2267 38.5295C71.4459 37.5603 71.5556 36.5351 71.5556 35.4539C71.5556 34.3915 71.4898 33.4036 71.3583 32.49C71.2267 31.5581 71.013 30.7566 70.717 30.0855C70.4211 29.3959 70.032 28.8553 69.5497 28.4637C69.0673 28.0538 68.4754 27.8301 67.7739 27.7927L67.1162 44.01ZM99.211 53.069L91.0557 54.8585L90.0693 48.5395H86.3204L85.4984 54.8585L77.1129 53.4605L83.6569 16.2171L92.7986 15.4342L99.211 53.069ZM89.4773 39.9836L88.2278 30.2532L87.011 39.9836H89.4773ZM97.1723 6.82237C95.8678 8.03399 94.5963 9.26425 93.3577 10.5132C92.1191 11.7434 90.8804 13.0855 89.6418 14.5395L87.5372 10.625C87.7564 10.1776 88.0195 9.68367 88.3264 9.1431C88.6334 8.58389 88.9567 8.01536 89.2965 7.4375C89.6472 6.85965 90.009 6.28181 90.3816 5.70395C90.7543 5.10747 91.116 4.53893 91.4669 3.99837C92.2998 2.71217 93.1713 1.41667 94.081 0.111847L97.1723 6.82237ZM118.711 29.6942C118.711 31.5023 118.552 33.1053 118.234 34.5032C117.916 35.9013 117.478 37.1316 116.919 38.1942C116.371 39.238 115.724 40.1234 114.979 40.8503C114.233 41.5587 113.433 42.1459 112.578 42.6118C111.734 43.0592 110.857 43.3947 109.947 43.6184C109.038 43.8235 108.145 43.9353 107.268 43.9539V55.8652H99.6056C99.6056 53.74 99.6056 51.6711 99.6056 49.6579C99.6166 47.6447 99.6221 45.6502 99.6221 43.6743C99.633 41.6799 99.6385 39.676 99.6385 37.6629C99.6494 35.6497 99.6604 33.5712 99.6714 31.4276C99.6933 29.1536 99.6988 26.8793 99.6879 24.6053C99.6769 22.3312 99.7043 20.0384 99.77 17.727C101.173 17.0187 102.576 16.4874 103.979 16.1332C105.382 15.7791 106.829 15.602 108.32 15.602C109.164 15.602 110.008 15.7231 110.852 15.9655C111.696 16.1892 112.501 16.5526 113.269 17.0559C114.047 17.5592 114.765 18.193 115.423 18.9573C116.092 19.7028 116.667 20.5976 117.149 21.6415C117.631 22.6853 118.01 23.8784 118.283 25.2205C118.569 26.5626 118.711 28.0538 118.711 29.6942ZM111.411 30.6447C111.411 29.4331 111.192 28.4918 110.753 27.8208C110.326 27.1311 109.766 26.7863 109.076 26.7863C108.847 26.7863 108.605 26.8235 108.353 26.8979C108.112 26.954 107.882 27.0286 107.662 27.1216L107.465 35.2863C107.619 35.3235 107.766 35.3421 107.909 35.3421C108.051 35.3421 108.199 35.3421 108.353 35.3421C108.748 35.3421 109.125 35.2303 109.487 35.0066C109.86 34.7829 110.189 34.466 110.473 34.0558C110.759 33.6273 110.984 33.1332 111.148 32.574C111.324 31.9961 111.411 31.353 111.411 30.6447ZM128.231 16.1053L127.081 54.1874L120.142 54.8026L119.484 16.8882L128.231 16.1053ZM149.737 34.0558C149.737 35.7523 149.623 37.3925 149.392 38.9769C149.162 40.5427 148.827 42.0154 148.389 43.3947C147.961 44.7741 147.435 46.0417 146.811 47.1974C146.196 48.3344 145.501 49.3131 144.722 50.1332C143.955 50.9535 143.116 51.5964 142.207 52.0626C141.297 52.51 140.332 52.7336 139.313 52.7336C138.326 52.7336 137.384 52.5193 136.485 52.0905C135.597 51.6617 134.764 51.0653 133.986 50.301C133.208 49.5181 132.501 48.586 131.864 47.505C131.24 46.4052 130.703 45.1935 130.253 43.87C129.815 42.5279 129.469 41.0926 129.218 39.5642C128.977 38.0356 128.856 36.4419 128.856 34.7829C128.856 33.1611 128.97 31.5767 129.201 30.0295C129.431 28.4637 129.76 26.9912 130.188 25.6118C130.626 24.2325 131.152 22.9649 131.766 21.8092C132.38 20.6536 133.065 19.6563 133.822 18.8174C134.589 17.9787 135.417 17.3262 136.304 16.8602C137.192 16.3942 138.13 16.1612 139.116 16.1612C140.706 16.1612 142.152 16.5806 143.456 17.4194C144.772 18.2582 145.89 19.4605 146.811 21.0263C147.742 22.5735 148.46 24.4562 148.964 26.6743C149.48 28.8739 149.737 31.3344 149.737 34.0558ZM142.437 34.7829C142.437 33.9814 142.366 33.2078 142.223 32.4621C142.091 31.6978 141.895 31.0268 141.632 30.449C141.369 29.8525 141.039 29.3773 140.645 29.0231C140.262 28.6502 139.817 28.4637 139.313 28.4637C138.798 28.4637 138.338 28.6223 137.932 28.9392C137.527 29.2561 137.175 29.6942 136.879 30.2532C136.594 30.7938 136.375 31.4369 136.222 32.1826C136.068 32.9095 135.991 33.6831 135.991 34.5032C135.991 35.2863 136.058 36.069 136.189 36.8521C136.321 37.6348 136.517 38.3432 136.781 38.9769C137.044 39.6107 137.368 40.1234 137.751 40.5148C138.145 40.9063 138.601 41.1021 139.116 41.1021C139.631 41.1021 140.091 40.9342 140.497 40.5987C140.913 40.2445 141.264 39.7786 141.55 39.2006C141.834 38.6041 142.054 37.9238 142.207 37.1595C142.36 36.3952 142.437 35.603 142.437 34.7829ZM176.094 33.2731C176.094 35.8827 175.896 38.2221 175.502 40.2911C175.107 42.3602 174.553 44.1962 173.841 45.7994C173.139 47.3838 172.302 48.7352 171.325 49.8537C170.35 50.9721 169.282 51.8947 168.12 52.6216C166.957 53.3301 165.718 53.8521 164.403 54.1874C163.099 54.5231 161.757 54.6908 160.375 54.6908C159.86 54.6908 159.356 54.6722 158.863 54.6348C158.369 54.5789 157.865 54.5043 157.35 54.4111L157.811 18.0066C159.016 17.3542 160.255 16.8975 161.526 16.6365C162.809 16.3569 164.08 16.2171 165.341 16.2171C166.909 16.2171 168.349 16.5899 169.665 17.3355C170.98 18.0812 172.114 19.181 173.069 20.6348C174.022 22.0701 174.762 23.8503 175.288 25.9753C175.826 28.0817 176.094 30.5143 176.094 33.2731ZM164.913 44.01C165.571 43.8421 166.168 43.5066 166.706 43.0032C167.254 42.4814 167.725 41.8476 168.12 41.1021C168.514 40.3378 168.815 39.4803 169.024 38.5295C169.243 37.5603 169.353 36.5351 169.353 35.4539C169.353 34.3915 169.287 33.4036 169.155 32.49C169.024 31.5581 168.81 30.7566 168.514 30.0855C168.218 29.3959 167.829 28.8553 167.346 28.4637C166.864 28.0538 166.272 27.8301 165.571 27.7927L164.913 44.01ZM195.479 32.8816C195.479 34.5032 195.413 36.125 195.281 37.7468C193.407 37.9517 191.544 38.2872 189.692 38.7532C187.839 39.2006 185.987 39.6479 184.134 40.0953C184.419 41.4374 184.863 42.5093 185.466 43.3108C186.079 44.1123 186.808 44.5132 187.652 44.5132C188.091 44.5132 188.568 44.3734 189.083 44.0937C189.61 43.8142 190.129 43.4694 190.645 43.0592C191.16 42.6305 191.653 42.1738 192.125 41.6892C192.596 41.2044 193.001 40.7664 193.341 40.375L192.552 53.069C192.125 53.6284 191.658 54.1037 191.154 54.495C190.662 54.8866 190.146 55.2035 189.61 55.4458C189.072 55.6881 188.529 55.8652 187.982 55.9769C187.434 56.0889 186.896 56.1447 186.37 56.1447C185.285 56.1447 184.292 55.8931 183.394 55.3898C182.495 54.8866 181.679 54.1874 180.944 53.2927C180.221 52.3793 179.584 51.3076 179.037 50.0773C178.489 48.8471 178.034 47.505 177.672 46.051C177.31 44.5971 177.037 43.0592 176.85 41.4374C176.663 39.8158 176.571 38.1754 176.571 36.5164C176.571 34.7829 176.663 33.0494 176.85 31.3158C177.037 29.5821 177.316 27.914 177.688 26.3108C178.072 24.7078 178.549 23.2259 179.119 21.8652C179.7 20.4857 180.374 19.2834 181.142 18.2582C181.909 17.233 182.775 16.4315 183.739 15.8536C184.714 15.2758 185.789 14.9868 186.962 14.9868C187.938 14.9868 188.826 15.2199 189.625 15.6859C190.437 16.1332 191.154 16.767 191.779 17.5872C192.415 18.3886 192.963 19.3487 193.423 20.4671C193.895 21.5855 194.279 22.8158 194.574 24.1579C194.882 25.4814 195.106 26.8886 195.249 28.38C195.402 29.8525 195.479 31.353 195.479 32.8816ZM188.902 31.4276C188.902 30.9056 188.869 30.3745 188.804 29.8339C188.737 29.2747 188.628 28.7713 188.474 28.324C188.332 27.8766 188.141 27.5132 187.899 27.2336C187.658 26.9353 187.357 26.7863 186.995 26.7863C186.556 26.7863 186.168 26.9912 185.828 27.4013C185.498 27.7927 185.213 28.2961 184.972 28.9111C184.731 29.5077 184.534 30.1602 184.381 30.8684C184.227 31.5767 184.112 32.2291 184.036 32.8257L188.902 32.0427V31.4276Z" fill="#FFDF20"/>
<path d="M232.977 66.2105L220.645 67.2171L220.546 47.8405H214.873L214.528 66.2105H203.479L204.417 7.24178L216.156 8.16447L215.416 38.2779H220.891L220.941 5.89967L232.188 6.40294L232.977 66.2105ZM265.557 34.0839C265.557 36.6284 265.383 39.0889 265.038 41.4655C264.693 43.8142 264.192 46.0231 263.534 48.0921C262.892 50.1611 262.103 52.0626 261.167 53.796C260.246 55.5016 259.202 56.9695 258.034 58.1998C256.883 59.43 255.625 60.3947 254.261 61.0937C252.896 61.7648 251.449 62.1003 249.92 62.1003C248.44 62.1003 247.026 61.7787 245.678 61.1358C244.346 60.4926 243.097 59.5979 241.929 58.4515C240.762 57.2771 239.701 55.8792 238.748 54.2574C237.81 52.6077 237.005 50.7903 236.331 48.805C235.673 46.7919 235.155 44.639 234.777 42.3463C234.415 40.0534 234.234 37.6629 234.234 35.1742C234.234 32.7418 234.407 30.3652 234.752 28.0444C235.097 25.6958 235.591 23.4868 236.232 21.4178C236.889 19.3487 237.679 17.4474 238.599 15.7138C239.52 13.9803 240.548 12.4844 241.683 11.2261C242.834 9.96792 244.074 8.98931 245.407 8.29028C246.739 7.59128 248.145 7.24178 249.624 7.24178C252.009 7.24178 254.178 7.87088 256.135 9.1291C258.108 10.3873 259.785 12.1908 261.167 14.5395C262.564 16.8602 263.641 19.6842 264.397 23.0116C265.17 26.3108 265.557 30.0016 265.557 34.0839ZM254.606 35.1742C254.606 33.9721 254.499 32.8116 254.286 31.6932C254.088 30.5468 253.792 29.5403 253.398 28.6734C253.003 27.7787 252.51 27.0658 251.918 26.5345C251.343 25.9753 250.676 25.6958 249.92 25.6958C249.147 25.6958 248.457 25.9334 247.848 26.4087C247.24 26.884 246.714 27.5411 246.269 28.38C245.842 29.1908 245.514 30.1555 245.283 31.2739C245.053 32.3642 244.938 33.5247 244.938 34.755C244.938 35.9292 245.037 37.1037 245.234 38.2779C245.432 39.4523 245.728 40.5148 246.122 41.4655C246.517 42.4161 247.002 43.185 247.577 43.7721C248.169 44.3594 248.852 44.6529 249.624 44.6529C250.397 44.6529 251.088 44.4013 251.696 43.8979C252.32 43.3668 252.846 42.6678 253.275 41.801C253.702 40.9063 254.03 39.8857 254.261 38.7392C254.491 37.5929 254.606 36.4047 254.606 35.1742ZM289.997 31.6513C289.997 33.301 289.997 34.9366 289.997 36.5584C289.997 38.18 289.948 39.8158 289.849 41.4655C289.669 44.9605 289.225 48.2739 288.518 51.4055C287.811 54.509 286.849 57.2352 285.632 59.5839C284.432 61.9326 282.968 63.7919 281.242 65.1621C279.515 66.5321 277.534 67.2171 275.298 67.2171C274.427 67.2171 273.514 67.0913 272.561 66.8397C271.623 66.5879 270.687 66.2105 269.749 65.7073C268.828 65.2039 267.94 64.5889 267.086 63.8618C266.247 63.1069 265.499 62.24 264.841 61.2616L266.37 43.8979C267.34 45.4918 268.417 46.7919 269.601 47.7984C270.785 48.7771 272.076 49.2664 273.473 49.2664C274.377 49.2664 275.142 49.0427 275.767 48.5953C276.391 48.1479 276.91 47.5329 277.32 46.75C277.732 45.9671 278.053 45.0584 278.282 44.0239C278.529 42.9613 278.702 41.8429 278.8 40.6686C278.916 39.4663 278.981 38.236 278.998 36.9779C279.03 35.7195 279.047 34.4753 279.047 33.245C279.047 28.7994 278.916 24.3816 278.653 19.9918C278.39 15.574 278.159 11.1562 277.962 6.73847L289.258 5.48026C289.751 14.2039 289.997 22.9276 289.997 31.6513ZM319.716 32.3224C319.716 34.755 319.618 37.1874 319.42 39.62C316.609 39.9276 313.814 40.431 311.035 41.13C308.257 41.801 305.478 42.4721 302.698 43.1431C303.127 45.1563 303.792 46.764 304.697 47.9663C305.617 49.1686 306.711 49.7697 307.977 49.7697C308.634 49.7697 309.35 49.56 310.122 49.1406C310.912 48.7213 311.692 48.2039 312.466 47.5889C313.238 46.9458 313.978 46.2607 314.685 45.5337C315.392 44.8068 316 44.1497 316.51 43.5626L315.326 62.6037C314.685 63.4424 313.986 64.1555 313.23 64.7426C312.49 65.3297 311.718 65.805 310.912 66.1686C310.105 66.5321 309.292 66.7976 308.47 66.9655C307.648 67.1332 306.842 67.2171 306.053 67.2171C304.425 67.2171 302.937 66.8397 301.589 66.0847C300.241 65.3297 299.015 64.2813 297.915 62.9392C296.829 61.569 295.875 59.9613 295.054 58.116C294.232 56.2705 293.549 54.2574 293.006 52.0765C292.464 49.8955 292.052 47.5889 291.774 45.1563C291.494 42.7237 291.354 40.2631 291.354 37.7747C291.354 35.1742 291.494 32.574 291.774 29.9737C292.052 27.3734 292.472 24.8708 293.031 22.4663C293.607 20.0616 294.321 17.8388 295.177 15.7977C296.048 13.7286 297.059 11.9252 298.21 10.3873C299.362 8.84949 300.66 7.6472 302.107 6.78042C303.571 5.91365 305.182 5.48026 306.941 5.48026C308.404 5.48026 309.736 5.82976 310.937 6.52878C312.153 7.19983 313.23 8.15049 314.167 9.38075C315.121 10.583 315.942 12.023 316.634 13.7007C317.341 15.3783 317.916 17.2237 318.36 19.2368C318.821 21.2221 319.157 23.3331 319.371 25.57C319.601 27.7787 319.716 30.0295 319.716 32.3224ZM309.851 30.1415C309.851 29.3585 309.801 28.5616 309.703 27.7508C309.605 26.9121 309.44 26.1571 309.21 25.486C308.996 24.815 308.708 24.2697 308.347 23.8503C307.985 23.4029 307.533 23.1792 306.991 23.1792C306.333 23.1792 305.749 23.4868 305.24 24.1021C304.746 24.6892 304.318 25.4442 303.957 26.3668C303.595 27.2616 303.299 28.24 303.069 29.3026C302.838 30.3652 302.666 31.3437 302.551 32.2384L309.851 31.0642V30.1415Z" fill="#FAFAFA"/>
</svg>
